# xmcd
#
# Track frame offsets:
#   150
#   31758
#   65599
#   94182
#   116503
#   145130
#   146408
#   171504
#   195692
#   227550
#   255256
#
# Disc length: 3672 seconds
#
# Revision: 0
# Processed by: cddbd v1.5.2PL0 Copyright (c) Steve Scherf et al.
# Submitted via: GXTranscoder 2.0.1939
#
DISCID=930e560b
DTITLE=Harry Polesnig Quartet - 24. April 2005
DYEAR=2005
DGENRE=Blues
TTITLE0=Glory of love
TTITLE1=some of these days
TTITLE2=harry's blues
TTITLE3=down by the riverside
TTITLE4=oh, lady be good
TTITLE5=die musiker
TTITLE6=a klans laternderl
TTITLE7=stranger on the shore
TTITLE8=rosetta
TTITLE9=choo choo ch'boogie
TTITLE10=the sheik of araby
EXTD=
EXTT0=
EXTT1=
EXTT2=
EXTT3=
EXTT4=
EXTT5=
EXTT6=
EXTT7=
EXTT8=
EXTT9=
EXTT10=
PLAYORDER=
